<?xml version="1.0" standalone="no"?>
<!DOCTYPE svg PUBLIC "-//W3C//DTD SVG 20010904//EN"
 "http://www.w3.org/TR/2001/REC-SVG-20010904/DTD/svg10.dtd">
<svg version="1.0" xmlns="http://www.w3.org/2000/svg"
 width="500.000000pt" height="500.000000pt" viewBox="0 0 500.000000 500.000000"
 preserveAspectRatio="xMidYMid meet">
<metadata>
Created by potrace 1.11, written by Peter Selinger 2001-2013
</metadata>
<g transform="translate(0.000000,500.000000) scale(0.100000,-0.100000)"
fill="#000000" stroke="none">
<path d="M1678 4552 c-54 -13 -61 -19 -107 -81 -89 -120 -312 -486 -473 -776
-30 -55 -66 -118 -78 -140 -22 -39 -211 -391 -240 -449 l-14 -28 -81 6 c-74 5
-94 8 -142 20 -99 26 -132 29 -160 17 -43 -18 -137 -113 -172 -174 -43 -77
-47 -109 -18 -143 l24 -28 187 0 c102 -1 186 -5 186 -10 0 -8 -53 -112 -185
-361 -207 -395 -245 -489 -242 -612 2 -81 23 -104 95 -106 82 -3 127 44 172
179 12 34 41 101 66 150 57 111 166 320 209 399 18 33 65 123 105 200 40 77
76 144 81 149 5 6 77 11 161 12 243 3 496 15 620 28 l46 6 -28 -58 c-46 -92
-219 -451 -256 -530 -60 -128 -98 -252 -90 -294 4 -22 14 -39 24 -42 41 -12
74 -14 107 -5 41 12 71 57 106 164 33 99 381 788 399 790 8 2 32 5 52 9 59 9
347 114 413 150 33 18 61 40 63 49 7 35 -106 58 -279 58 l-126 0 56 99 c100
178 131 225 192 295 32 38 75 92 96 122 42 61 40 67 -36 102 -47 23 -52 23
-108 10 -56 -14 -60 -16 -123 -101 -74 -98 -158 -237 -253 -417 -59 -112 -68
-125 -94 -126 -258 -17 -757 -25 -770 -12 -5 6 42 96 159 307 14 25 49 88 78
140 99 180 113 204 161 288 27 47 49 87 49 89 0 2 23 40 50 84 28 44 50 83 50
85 0 3 9 17 19 32 10 15 47 70 81 122 34 52 79 115 100 140 21 25 49 66 64 91
l26 46 -51 28 c-71 38 -104 44 -171 27z"/>
<path d="M4844 2779 c-42 -12 -118 -89 -210 -214 -137 -186 -596 -798 -641
-855 -24 -30 -50 -62 -56 -70 -64 -84 -113 -147 -161 -210 -76 -100 -155 -180
-178 -180 -36 0 -47 58 -53 305 -3 99 -7 190 -9 202 -5 26 -17 121 -21 178 -2
22 -6 72 -11 110 -10 99 -11 251 -2 310 14 86 14 238 0 270 -15 36 -57 55
-105 50 -32 -4 -81 -49 -146 -135 -14 -19 -33 -43 -42 -52 -17 -20 -78 -103
-406 -558 -424 -588 -528 -728 -534 -719 -3 5 -4 24 -3 42 1 17 5 72 8 122 7
98 29 260 51 370 17 82 26 132 30 160 2 11 20 97 40 190 65 297 52 444 -37
422 -35 -9 -91 -69 -121 -131 -22 -45 -106 -291 -152 -446 -79 -265 -141 -518
-165 -675 -6 -38 -13 -81 -15 -95 -32 -199 -35 -455 -8 -555 10 -39 44 -65 84
-65 68 0 145 68 244 215 37 56 228 319 409 566 66 89 133 181 150 205 17 24
85 116 151 206 66 89 127 172 135 184 106 157 146 212 148 209 2 -2 -1 -20 -7
-41 -30 -113 -34 -702 -6 -899 2 -16 7 -101 10 -188 7 -208 27 -294 84 -364
61 -74 125 -92 200 -54 38 20 145 131 246 256 31 39 64 79 73 90 10 11 30 38
47 60 16 22 33 45 37 50 63 79 458 650 458 663 0 3 8 15 18 26 10 12 56 82
102 156 45 74 93 151 106 170 86 131 306 510 323 556 26 68 27 126 4 146 -28
24 -36 26 -69 17z"/>
</g>
</svg>
